<svg width="24" height="24" viewBox="0 0 24 24" fill="none" xmlns="http://www.w3.org/2000/svg">
<path d="M7.23333 4.66636C9.93 4.6672 11.3775 7.575 12 8.8581C12.625 7.56917 14.0575 4.6747 16.7717 4.6747C18.4867 4.6747 20.3333 5.76533 20.3333 8.15906C20.3333 11.0269 16.38 14.7004 12 18.9904C7.61833 14.6987 3.66667 11.026 3.66667 8.15906C3.66667 5.92947 5.30417 4.66553 7.23333 4.66636ZM7.23417 3C4.58167 3 2 4.82217 2 8.15906C2 12.0425 6.64167 16.0135 12 21.33C17.3583 16.0135 22 12.0425 22 8.15906C22 4.81717 19.4192 3.00833 16.7717 3.00833C14.935 3.00833 13.0667 3.87651 12 5.70617C10.9292 3.86818 9.065 3 7.23417 3Z" fill="currentColor"/>
</svg>
