<svg viewBox="0 0 104 17" fill="none" xmlns="http://www.w3.org/2000/svg">
<path d="M13.848 8.224C13.848 13.408 11.48 16 6.744 16H0.96V1.096H6.864C9.408 1.096 11.208 1.712 12.264 2.944C13.32 4.16 13.848 5.92 13.848 8.224ZM6.672 12.256C7.488 12.256 8.016 11.976 8.256 11.416C8.496 10.856 8.616 9.928 8.616 8.632C8.616 7.32 8.48 6.392 8.208 5.848C7.952 5.288 7.408 5.008 6.576 5.008H6.072V12.256H6.672ZM20.5592 8.08C20.2232 8.08 19.9912 8.184 19.8632 8.392C19.7352 8.6 19.6712 8.92 19.6712 9.352H21.3992V8.968C21.3992 8.376 21.1192 8.08 20.5592 8.08ZM14.7272 10.216C14.7272 8.312 15.2232 6.84 16.2152 5.8C17.2232 4.744 18.6952 4.216 20.6312 4.216C22.5832 4.216 23.9592 4.616 24.7592 5.416C25.5752 6.216 25.9832 7.36 25.9832 8.848C25.9832 9.44 25.9192 10.336 25.7912 11.536H19.7672C19.8312 12.4 20.3592 12.832 21.3512 12.832C21.8152 12.832 23.0312 12.664 24.9992 12.328L25.4072 15.568C23.7112 16.016 22.1272 16.24 20.6552 16.24C18.7352 16.24 17.2632 15.712 16.2392 14.656C15.2312 13.6 14.7272 12.12 14.7272 10.216ZM38.3906 4.504L35.6306 16H28.8866L26.1026 4.504H31.3106L32.2706 10.648H32.4386L33.4946 4.504H38.3906ZM43.2169 16.24C41.9689 16.24 41.0489 16.008 40.4569 15.544C39.8809 15.064 39.5929 14.248 39.5929 13.096V7.888H38.3209V4.648H39.8329L40.1449 2.512H44.5849V4.648H46.7689V7.888H44.5609V12.328C44.5609 12.536 44.6569 12.64 44.8489 12.64C44.8649 12.64 45.4969 12.608 46.7449 12.544L46.6009 16C45.0009 16.16 43.8729 16.24 43.2169 16.24ZM52.7979 9.568V16H47.8539V4.504H52.1259L52.2699 5.272H52.3659C52.7499 4.92 53.1899 4.68 53.6859 4.552C54.1819 4.408 54.9099 4.336 55.8699 4.336L55.7259 8.32H54.0939C53.6139 8.32 53.2779 8.408 53.0859 8.584C52.8939 8.76 52.7979 9.088 52.7979 9.568ZM62.3483 8.08C62.0123 8.08 61.7803 8.184 61.6523 8.392C61.5243 8.6 61.4603 8.92 61.4603 9.352H63.1883V8.968C63.1883 8.376 62.9083 8.08 62.3483 8.08ZM56.5163 10.216C56.5163 8.312 57.0123 6.84 58.0043 5.8C59.0123 4.744 60.4843 4.216 62.4203 4.216C64.3723 4.216 65.7483 4.616 66.5483 5.416C67.3643 6.216 67.7723 7.36 67.7723 8.848C67.7723 9.44 67.7083 10.336 67.5803 11.536H61.5563C61.6203 12.4 62.1483 12.832 63.1403 12.832C63.6043 12.832 64.8203 12.664 66.7883 12.328L67.1963 15.568C65.5003 16.016 63.9163 16.24 62.4443 16.24C60.5243 16.24 59.0523 15.712 58.0283 14.656C57.0203 13.6 56.5163 12.12 56.5163 10.216ZM76.8677 4.216C79.1077 4.216 80.2277 5.304 80.2277 7.48V16H75.1637V8.56C75.1637 8.304 75.0277 8.176 74.7557 8.176C74.4997 8.176 74.2117 8.256 73.8917 8.416V16H68.8997V4.504H73.4357L73.5797 5.248C74.5877 4.56 75.6837 4.216 76.8677 4.216ZM91.2011 16.24C89.9531 16.24 89.0971 15.928 88.6331 15.304H88.5371C87.8011 15.928 86.9291 16.24 85.9211 16.24C84.2571 16.24 83.0731 15.712 82.3691 14.656C81.6651 13.6 81.3131 12.104 81.3131 10.168C81.3131 8.232 81.6971 6.76 82.4651 5.752C83.2491 4.728 84.3691 4.216 85.8251 4.216C86.6571 4.216 87.3291 4.344 87.8411 4.6V0.615999H92.6651V12.4C92.6651 12.608 92.7371 12.752 92.8811 12.832C93.0411 12.912 93.3131 12.952 93.6971 12.952L93.2651 16.144C92.4331 16.208 91.7451 16.24 91.2011 16.24ZM87.0731 7.864C86.7531 7.864 86.5451 8.048 86.4491 8.416C86.3691 8.784 86.3291 9.424 86.3291 10.336C86.3291 11.248 86.3691 11.888 86.4491 12.256C86.5291 12.608 86.7291 12.784 87.0491 12.784C87.3851 12.784 87.6491 12.752 87.8411 12.688V8.032C87.5691 7.92 87.3131 7.864 87.0731 7.864ZM103.512 12.424C103.512 14.968 102.032 16.24 99.0724 16.24C97.5364 16.24 96.0484 16.072 94.6084 15.736L94.9204 12.208C96.9204 12.688 98.2484 12.928 98.9044 12.928C99.1284 12.928 99.2404 12.856 99.2404 12.712C99.2404 12.568 99.1124 12.448 98.8564 12.352C97.2084 11.792 96.0084 11.2 95.2564 10.576C94.5044 9.952 94.1284 9.056 94.1284 7.888C94.1284 6.72 94.5364 5.816 95.3524 5.176C96.1844 4.536 97.2964 4.216 98.6884 4.216C100.096 4.216 101.64 4.376 103.32 4.696L102.816 8.32C100.704 7.904 99.4244 7.696 98.9764 7.696C98.7684 7.696 98.6644 7.776 98.6644 7.936C98.6644 8.064 98.8004 8.176 99.0724 8.272C100.4 8.704 101.36 9.136 101.952 9.568C102.544 9.984 102.952 10.416 103.176 10.864C103.4 11.312 103.512 11.832 103.512 12.424Z" fill="currentColor"/>
</svg>
